<mxfile host="Electron" modified="2024-04-19T06:09:06.883Z" agent="Mozilla/5.0 (Windows NT 10.0; Win64; x64) AppleWebKit/537.36 (KHTML, like Gecko) draw.io/24.2.5 Chrome/120.0.6099.109 Electron/28.1.0 Safari/537.36" etag="-JzUnw5b4-KZcQRk0r2p" version="24.2.5" type="device">
  <diagram id="C5RBs43oDa-KdzZeNtuy" name="Page-1">
    <mxGraphModel dx="4594" dy="2549" grid="1" gridSize="10" guides="1" tooltips="1" connect="1" arrows="1" fold="1" page="1" pageScale="1" pageWidth="827" pageHeight="1169" math="0" shadow="0">
      <root>
        <mxCell id="WIyWlLk6GJQsqaUBKTNV-0" />
        <mxCell id="WIyWlLk6GJQsqaUBKTNV-1" parent="WIyWlLk6GJQsqaUBKTNV-0" />
        <mxCell id="EPWNyJZTlqsivobSmLNO-3" style="edgeStyle=orthogonalEdgeStyle;rounded=0;orthogonalLoop=1;jettySize=auto;html=1;exitX=1;exitY=0.5;exitDx=0;exitDy=0;exitPerimeter=0;" parent="WIyWlLk6GJQsqaUBKTNV-1" source="EPWNyJZTlqsivobSmLNO-1" target="EPWNyJZTlqsivobSmLNO-2" edge="1">
          <mxGeometry relative="1" as="geometry" />
        </mxCell>
        <mxCell id="EPWNyJZTlqsivobSmLNO-1" value="" style="strokeWidth=2;html=1;shape=mxgraph.flowchart.start_2;whiteSpace=wrap;" parent="WIyWlLk6GJQsqaUBKTNV-1" vertex="1">
          <mxGeometry x="80" y="65" width="50" height="50" as="geometry" />
        </mxCell>
        <mxCell id="EPWNyJZTlqsivobSmLNO-5" style="edgeStyle=orthogonalEdgeStyle;rounded=0;orthogonalLoop=1;jettySize=auto;html=1;entryX=0;entryY=0.75;entryDx=0;entryDy=0;" parent="WIyWlLk6GJQsqaUBKTNV-1" source="EPWNyJZTlqsivobSmLNO-2" target="EPWNyJZTlqsivobSmLNO-4" edge="1">
          <mxGeometry relative="1" as="geometry" />
        </mxCell>
        <mxCell id="EPWNyJZTlqsivobSmLNO-2" value="Login side" style="strokeWidth=2;html=1;shape=mxgraph.flowchart.display;whiteSpace=wrap;" parent="WIyWlLk6GJQsqaUBKTNV-1" vertex="1">
          <mxGeometry x="180" y="60" width="100" height="60" as="geometry" />
        </mxCell>
        <mxCell id="EPWNyJZTlqsivobSmLNO-7" style="edgeStyle=orthogonalEdgeStyle;rounded=0;orthogonalLoop=1;jettySize=auto;html=1;exitX=1;exitY=0.5;exitDx=0;exitDy=0;" parent="WIyWlLk6GJQsqaUBKTNV-1" source="EPWNyJZTlqsivobSmLNO-4" target="EPWNyJZTlqsivobSmLNO-6" edge="1">
          <mxGeometry relative="1" as="geometry" />
        </mxCell>
        <mxCell id="EPWNyJZTlqsivobSmLNO-4" value="Bruger oplysninger indtastes" style="html=1;strokeWidth=2;shape=manualInput;whiteSpace=wrap;rounded=1;size=26;arcSize=11;" parent="WIyWlLk6GJQsqaUBKTNV-1" vertex="1">
          <mxGeometry x="364" y="30" width="100" height="80" as="geometry" />
        </mxCell>
        <mxCell id="EPWNyJZTlqsivobSmLNO-6" value="Informationer valideres" style="rounded=1;whiteSpace=wrap;html=1;absoluteArcSize=1;arcSize=14;strokeWidth=2;" parent="WIyWlLk6GJQsqaUBKTNV-1" vertex="1">
          <mxGeometry x="350" y="150" width="100" height="100" as="geometry" />
        </mxCell>
        <mxCell id="EPWNyJZTlqsivobSmLNO-17" style="edgeStyle=orthogonalEdgeStyle;rounded=0;orthogonalLoop=1;jettySize=auto;html=1;entryX=0.5;entryY=0;entryDx=0;entryDy=0;" parent="WIyWlLk6GJQsqaUBKTNV-1" source="EPWNyJZTlqsivobSmLNO-14" target="EPWNyJZTlqsivobSmLNO-22" edge="1">
          <mxGeometry relative="1" as="geometry">
            <mxPoint x="720" y="340" as="targetPoint" />
          </mxGeometry>
        </mxCell>
        <mxCell id="EPWNyJZTlqsivobSmLNO-18" value="True" style="edgeLabel;html=1;align=center;verticalAlign=middle;resizable=0;points=[];" parent="EPWNyJZTlqsivobSmLNO-17" vertex="1" connectable="0">
          <mxGeometry x="-0.0483" relative="1" as="geometry">
            <mxPoint as="offset" />
          </mxGeometry>
        </mxCell>
        <mxCell id="EPWNyJZTlqsivobSmLNO-20" style="edgeStyle=orthogonalEdgeStyle;rounded=0;orthogonalLoop=1;jettySize=auto;html=1;exitX=0;exitY=0.5;exitDx=0;exitDy=0;exitPerimeter=0;curved=1;" parent="WIyWlLk6GJQsqaUBKTNV-1" edge="1">
          <mxGeometry relative="1" as="geometry">
            <mxPoint x="234" y="120" as="targetPoint" />
            <mxPoint x="514" y="340" as="sourcePoint" />
            <Array as="points">
              <mxPoint x="454" y="340" />
              <mxPoint x="454" y="280" />
              <mxPoint x="254" y="280" />
              <mxPoint x="254" y="140" />
              <mxPoint x="234" y="140" />
            </Array>
          </mxGeometry>
        </mxCell>
        <mxCell id="EPWNyJZTlqsivobSmLNO-21" value="False" style="edgeLabel;html=1;align=center;verticalAlign=middle;resizable=0;points=[];" parent="EPWNyJZTlqsivobSmLNO-20" vertex="1" connectable="0">
          <mxGeometry x="0.0388" y="-1" relative="1" as="geometry">
            <mxPoint as="offset" />
          </mxGeometry>
        </mxCell>
        <mxCell id="EPWNyJZTlqsivobSmLNO-14" value="User eksisterer" style="strokeWidth=2;html=1;shape=mxgraph.flowchart.decision;whiteSpace=wrap;" parent="WIyWlLk6GJQsqaUBKTNV-1" vertex="1">
          <mxGeometry x="510" y="290" width="100" height="100" as="geometry" />
        </mxCell>
        <mxCell id="EPWNyJZTlqsivobSmLNO-15" style="edgeStyle=orthogonalEdgeStyle;rounded=0;orthogonalLoop=1;jettySize=auto;html=1;" parent="WIyWlLk6GJQsqaUBKTNV-1" source="EPWNyJZTlqsivobSmLNO-6" target="Z_NCsX3aNf2hh9q1rLj8-10" edge="1">
          <mxGeometry relative="1" as="geometry">
            <mxPoint x="520" y="200" as="targetPoint" />
          </mxGeometry>
        </mxCell>
        <mxCell id="EPWNyJZTlqsivobSmLNO-24" style="edgeStyle=orthogonalEdgeStyle;rounded=0;orthogonalLoop=1;jettySize=auto;html=1;entryX=0;entryY=0.5;entryDx=0;entryDy=0;entryPerimeter=0;exitX=0.5;exitY=1;exitDx=0;exitDy=0;" parent="WIyWlLk6GJQsqaUBKTNV-1" source="EPWNyJZTlqsivobSmLNO-22" target="EPWNyJZTlqsivobSmLNO-23" edge="1">
          <mxGeometry relative="1" as="geometry">
            <mxPoint x="750" y="520" as="targetPoint" />
          </mxGeometry>
        </mxCell>
        <mxCell id="EPWNyJZTlqsivobSmLNO-25" style="edgeStyle=orthogonalEdgeStyle;rounded=0;orthogonalLoop=1;jettySize=auto;html=1;" parent="WIyWlLk6GJQsqaUBKTNV-1" source="EPWNyJZTlqsivobSmLNO-22" target="EPWNyJZTlqsivobSmLNO-26" edge="1">
          <mxGeometry relative="1" as="geometry">
            <mxPoint x="590" y="410.0000000000001" as="targetPoint" />
          </mxGeometry>
        </mxCell>
        <mxCell id="EPWNyJZTlqsivobSmLNO-22" value="Bruger bliver logget ind" style="rounded=1;whiteSpace=wrap;html=1;absoluteArcSize=1;arcSize=14;strokeWidth=2;" parent="WIyWlLk6GJQsqaUBKTNV-1" vertex="1">
          <mxGeometry x="700" y="370" width="100" height="100" as="geometry" />
        </mxCell>
        <mxCell id="EPWNyJZTlqsivobSmLNO-23" value="Dashboard" style="strokeWidth=2;html=1;shape=mxgraph.flowchart.display;whiteSpace=wrap;direction=west;" parent="WIyWlLk6GJQsqaUBKTNV-1" vertex="1">
          <mxGeometry x="580" y="480" width="100" height="60" as="geometry" />
        </mxCell>
        <mxCell id="EPWNyJZTlqsivobSmLNO-27" style="edgeStyle=orthogonalEdgeStyle;rounded=0;orthogonalLoop=1;jettySize=auto;html=1;exitX=0;exitY=0.5;exitDx=0;exitDy=0;" parent="WIyWlLk6GJQsqaUBKTNV-1" source="EPWNyJZTlqsivobSmLNO-26" target="EPWNyJZTlqsivobSmLNO-28" edge="1">
          <mxGeometry relative="1" as="geometry">
            <mxPoint x="490" y="420.33333333333326" as="targetPoint" />
          </mxGeometry>
        </mxCell>
        <mxCell id="EPWNyJZTlqsivobSmLNO-26" value="Login info&amp;nbsp;&lt;div&gt;sendes&lt;span style=&quot;background-color: initial;&quot;&gt;&amp;nbsp;til&amp;nbsp;&lt;/span&gt;&lt;/div&gt;&lt;div&gt;&lt;span style=&quot;background-color: initial;&quot;&gt;arduino&lt;/span&gt;&lt;/div&gt;" style="shape=parallelogram;html=1;strokeWidth=2;perimeter=parallelogramPerimeter;whiteSpace=wrap;rounded=1;arcSize=12;size=0.23;" parent="WIyWlLk6GJQsqaUBKTNV-1" vertex="1">
          <mxGeometry x="560" y="385" width="120" height="70" as="geometry" />
        </mxCell>
        <mxCell id="EPWNyJZTlqsivobSmLNO-28" value="Arduino modtage data" style="rounded=1;whiteSpace=wrap;html=1;absoluteArcSize=1;arcSize=14;strokeWidth=2;" parent="WIyWlLk6GJQsqaUBKTNV-1" vertex="1">
          <mxGeometry x="414" y="370.0033333333333" width="100" height="100" as="geometry" />
        </mxCell>
        <mxCell id="EPWNyJZTlqsivobSmLNO-29" value="Vælg spil menu åbnes" style="strokeWidth=2;html=1;shape=mxgraph.flowchart.display;whiteSpace=wrap;direction=west;" parent="WIyWlLk6GJQsqaUBKTNV-1" vertex="1">
          <mxGeometry x="280" y="390" width="100" height="60" as="geometry" />
        </mxCell>
        <mxCell id="EPWNyJZTlqsivobSmLNO-30" style="edgeStyle=orthogonalEdgeStyle;rounded=0;orthogonalLoop=1;jettySize=auto;html=1;entryX=0;entryY=0.5;entryDx=0;entryDy=0;entryPerimeter=0;" parent="WIyWlLk6GJQsqaUBKTNV-1" source="EPWNyJZTlqsivobSmLNO-28" target="EPWNyJZTlqsivobSmLNO-29" edge="1">
          <mxGeometry relative="1" as="geometry" />
        </mxCell>
        <mxCell id="Z_NCsX3aNf2hh9q1rLj8-1" value="" style="strokeWidth=2;html=1;shape=mxgraph.flowchart.start_2;whiteSpace=wrap;" parent="WIyWlLk6GJQsqaUBKTNV-1" vertex="1">
          <mxGeometry x="75" y="130" width="60" height="60" as="geometry" />
        </mxCell>
        <mxCell id="Z_NCsX3aNf2hh9q1rLj8-5" style="edgeStyle=orthogonalEdgeStyle;rounded=0;orthogonalLoop=1;jettySize=auto;html=1;exitX=0;exitY=0.5;exitDx=0;exitDy=0;exitPerimeter=0;" parent="WIyWlLk6GJQsqaUBKTNV-1" source="Z_NCsX3aNf2hh9q1rLj8-3" target="Z_NCsX3aNf2hh9q1rLj8-6" edge="1">
          <mxGeometry relative="1" as="geometry">
            <mxPoint y="280" as="targetPoint" />
          </mxGeometry>
        </mxCell>
        <mxCell id="Z_NCsX3aNf2hh9q1rLj8-7" value="True" style="edgeLabel;html=1;align=center;verticalAlign=middle;resizable=0;points=[];" parent="Z_NCsX3aNf2hh9q1rLj8-5" vertex="1" connectable="0">
          <mxGeometry x="-0.0769" relative="1" as="geometry">
            <mxPoint as="offset" />
          </mxGeometry>
        </mxCell>
        <mxCell id="Z_NCsX3aNf2hh9q1rLj8-8" style="edgeStyle=orthogonalEdgeStyle;rounded=0;orthogonalLoop=1;jettySize=auto;html=1;" parent="WIyWlLk6GJQsqaUBKTNV-1" source="Z_NCsX3aNf2hh9q1rLj8-3" target="Z_NCsX3aNf2hh9q1rLj8-9" edge="1">
          <mxGeometry relative="1" as="geometry">
            <mxPoint x="220" y="280" as="targetPoint" />
          </mxGeometry>
        </mxCell>
        <mxCell id="Z_NCsX3aNf2hh9q1rLj8-3" value="Logget ind" style="strokeWidth=2;html=1;shape=mxgraph.flowchart.decision;whiteSpace=wrap;" parent="WIyWlLk6GJQsqaUBKTNV-1" vertex="1">
          <mxGeometry x="55" y="230" width="100" height="100" as="geometry" />
        </mxCell>
        <mxCell id="Z_NCsX3aNf2hh9q1rLj8-4" style="edgeStyle=orthogonalEdgeStyle;rounded=0;orthogonalLoop=1;jettySize=auto;html=1;entryX=0.5;entryY=0;entryDx=0;entryDy=0;entryPerimeter=0;" parent="WIyWlLk6GJQsqaUBKTNV-1" source="Z_NCsX3aNf2hh9q1rLj8-1" target="Z_NCsX3aNf2hh9q1rLj8-3" edge="1">
          <mxGeometry relative="1" as="geometry" />
        </mxCell>
        <mxCell id="Z_NCsX3aNf2hh9q1rLj8-15" style="edgeStyle=orthogonalEdgeStyle;rounded=0;orthogonalLoop=1;jettySize=auto;html=1;entryX=1;entryY=0.5;entryDx=0;entryDy=0;" parent="WIyWlLk6GJQsqaUBKTNV-1" source="Z_NCsX3aNf2hh9q1rLj8-6" target="Z_NCsX3aNf2hh9q1rLj8-13" edge="1">
          <mxGeometry relative="1" as="geometry" />
        </mxCell>
        <mxCell id="Z_NCsX3aNf2hh9q1rLj8-6" value="Vælg spil skærm" style="strokeWidth=2;html=1;shape=mxgraph.flowchart.display;whiteSpace=wrap;" parent="WIyWlLk6GJQsqaUBKTNV-1" vertex="1">
          <mxGeometry x="-110" y="250" width="100" height="60" as="geometry" />
        </mxCell>
        <mxCell id="Z_NCsX3aNf2hh9q1rLj8-9" value="Please login message" style="strokeWidth=2;html=1;shape=mxgraph.flowchart.display;whiteSpace=wrap;" parent="WIyWlLk6GJQsqaUBKTNV-1" vertex="1">
          <mxGeometry x="180" y="270" width="100" height="60" as="geometry" />
        </mxCell>
        <mxCell id="Z_NCsX3aNf2hh9q1rLj8-11" style="edgeStyle=orthogonalEdgeStyle;rounded=0;orthogonalLoop=1;jettySize=auto;html=1;" parent="WIyWlLk6GJQsqaUBKTNV-1" source="Z_NCsX3aNf2hh9q1rLj8-10" target="EPWNyJZTlqsivobSmLNO-14" edge="1">
          <mxGeometry relative="1" as="geometry" />
        </mxCell>
        <mxCell id="Z_NCsX3aNf2hh9q1rLj8-10" value="" style="strokeWidth=2;html=1;shape=mxgraph.flowchart.database;whiteSpace=wrap;" parent="WIyWlLk6GJQsqaUBKTNV-1" vertex="1">
          <mxGeometry x="530" y="170" width="60" height="60" as="geometry" />
        </mxCell>
        <mxCell id="Z_NCsX3aNf2hh9q1rLj8-12" style="edgeStyle=orthogonalEdgeStyle;rounded=0;orthogonalLoop=1;jettySize=auto;html=1;entryX=1;entryY=0.5;entryDx=0;entryDy=0;entryPerimeter=0;" parent="WIyWlLk6GJQsqaUBKTNV-1" source="Z_NCsX3aNf2hh9q1rLj8-9" target="Z_NCsX3aNf2hh9q1rLj8-1" edge="1">
          <mxGeometry relative="1" as="geometry">
            <Array as="points">
              <mxPoint x="230" y="160" />
            </Array>
          </mxGeometry>
        </mxCell>
        <mxCell id="Z_NCsX3aNf2hh9q1rLj8-16" style="edgeStyle=orthogonalEdgeStyle;rounded=0;orthogonalLoop=1;jettySize=auto;html=1;exitX=0.506;exitY=0.247;exitDx=0;exitDy=0;exitPerimeter=0;movable=1;resizable=1;rotatable=1;deletable=1;editable=1;locked=0;connectable=1;jumpSize=6;" parent="WIyWlLk6GJQsqaUBKTNV-1" edge="1">
          <mxGeometry relative="1" as="geometry">
            <mxPoint x="-190.2999999999999" y="200" as="targetPoint" />
            <mxPoint x="-189.7000000000001" y="264.82" as="sourcePoint" />
            <Array as="points">
              <mxPoint x="-190" y="230" />
              <mxPoint x="-190" y="230" />
            </Array>
          </mxGeometry>
        </mxCell>
        <mxCell id="Z_NCsX3aNf2hh9q1rLj8-13" value="Bruger input" style="html=1;strokeWidth=2;shape=manualInput;whiteSpace=wrap;rounded=1;size=26;arcSize=11;" parent="WIyWlLk6GJQsqaUBKTNV-1" vertex="1">
          <mxGeometry x="-240" y="250" width="100" height="60" as="geometry" />
        </mxCell>
        <mxCell id="Z_NCsX3aNf2hh9q1rLj8-26" style="edgeStyle=orthogonalEdgeStyle;rounded=0;orthogonalLoop=1;jettySize=auto;html=1;entryX=0;entryY=0.5;entryDx=0;entryDy=0;entryPerimeter=0;" parent="WIyWlLk6GJQsqaUBKTNV-1" source="Z_NCsX3aNf2hh9q1rLj8-17" target="Z_NCsX3aNf2hh9q1rLj8-80" edge="1">
          <mxGeometry relative="1" as="geometry">
            <mxPoint x="-340" y="150" as="targetPoint" />
            <Array as="points">
              <mxPoint x="-240" y="160" />
              <mxPoint x="-240" y="160" />
            </Array>
          </mxGeometry>
        </mxCell>
        <mxCell id="Z_NCsX3aNf2hh9q1rLj8-31" value="Pong" style="edgeLabel;html=1;align=center;verticalAlign=middle;resizable=0;points=[];" parent="Z_NCsX3aNf2hh9q1rLj8-26" vertex="1" connectable="0">
          <mxGeometry x="0.4354" y="-2" relative="1" as="geometry">
            <mxPoint as="offset" />
          </mxGeometry>
        </mxCell>
        <mxCell id="Z_NCsX3aNf2hh9q1rLj8-27" style="edgeStyle=orthogonalEdgeStyle;rounded=0;orthogonalLoop=1;jettySize=auto;html=1;" parent="WIyWlLk6GJQsqaUBKTNV-1" source="Z_NCsX3aNf2hh9q1rLj8-17" target="Z_NCsX3aNf2hh9q1rLj8-81" edge="1">
          <mxGeometry relative="1" as="geometry">
            <mxPoint x="-340" y="100" as="targetPoint" />
          </mxGeometry>
        </mxCell>
        <mxCell id="Z_NCsX3aNf2hh9q1rLj8-36" value="BB" style="edgeLabel;html=1;align=center;verticalAlign=middle;resizable=0;points=[];" parent="Z_NCsX3aNf2hh9q1rLj8-27" vertex="1" connectable="0">
          <mxGeometry x="0.5988" y="-2" relative="1" as="geometry">
            <mxPoint as="offset" />
          </mxGeometry>
        </mxCell>
        <mxCell id="Z_NCsX3aNf2hh9q1rLj8-28" style="edgeStyle=orthogonalEdgeStyle;rounded=0;orthogonalLoop=1;jettySize=auto;html=1;entryX=0;entryY=0.5;entryDx=0;entryDy=0;entryPerimeter=0;" parent="WIyWlLk6GJQsqaUBKTNV-1" source="Z_NCsX3aNf2hh9q1rLj8-17" target="Z_NCsX3aNf2hh9q1rLj8-79" edge="1">
          <mxGeometry relative="1" as="geometry">
            <mxPoint x="-340" y="200.0000000000001" as="targetPoint" />
          </mxGeometry>
        </mxCell>
        <mxCell id="Z_NCsX3aNf2hh9q1rLj8-30" value="Snake" style="edgeLabel;html=1;align=center;verticalAlign=middle;resizable=0;points=[];" parent="Z_NCsX3aNf2hh9q1rLj8-28" vertex="1" connectable="0">
          <mxGeometry x="0.6069" y="-1" relative="1" as="geometry">
            <mxPoint as="offset" />
          </mxGeometry>
        </mxCell>
        <mxCell id="Z_NCsX3aNf2hh9q1rLj8-29" style="edgeStyle=orthogonalEdgeStyle;rounded=0;orthogonalLoop=1;jettySize=auto;html=1;exitX=0;exitY=0.5;exitDx=0;exitDy=0;exitPerimeter=0;entryX=0;entryY=0.5;entryDx=0;entryDy=0;entryPerimeter=0;" parent="WIyWlLk6GJQsqaUBKTNV-1" source="Z_NCsX3aNf2hh9q1rLj8-17" target="Z_NCsX3aNf2hh9q1rLj8-78" edge="1">
          <mxGeometry relative="1" as="geometry">
            <mxPoint x="-340" y="255" as="targetPoint" />
            <mxPoint x="-240" y="145" as="sourcePoint" />
            <Array as="points">
              <mxPoint x="-320" y="160" />
              <mxPoint x="-320" y="280" />
            </Array>
          </mxGeometry>
        </mxCell>
        <mxCell id="Z_NCsX3aNf2hh9q1rLj8-35" value="SS" style="edgeLabel;html=1;align=center;verticalAlign=middle;resizable=0;points=[];" parent="Z_NCsX3aNf2hh9q1rLj8-29" vertex="1" connectable="0">
          <mxGeometry x="0.7714" relative="1" as="geometry">
            <mxPoint as="offset" />
          </mxGeometry>
        </mxCell>
        <mxCell id="Z_NCsX3aNf2hh9q1rLj8-17" value="" style="strokeWidth=2;html=1;shape=mxgraph.flowchart.decision;whiteSpace=wrap;" parent="WIyWlLk6GJQsqaUBKTNV-1" vertex="1">
          <mxGeometry x="-240" y="110" width="100" height="100" as="geometry" />
        </mxCell>
        <mxCell id="Z_NCsX3aNf2hh9q1rLj8-78" value="Main menu" style="strokeWidth=2;html=1;shape=mxgraph.flowchart.display;whiteSpace=wrap;direction=west;" parent="WIyWlLk6GJQsqaUBKTNV-1" vertex="1">
          <mxGeometry x="-500" y="250" width="100" height="60" as="geometry" />
        </mxCell>
        <mxCell id="Z_NCsX3aNf2hh9q1rLj8-79" value="Main menu" style="strokeWidth=2;html=1;shape=mxgraph.flowchart.display;whiteSpace=wrap;direction=west;" parent="WIyWlLk6GJQsqaUBKTNV-1" vertex="1">
          <mxGeometry x="-500" y="190" width="100" height="60" as="geometry" />
        </mxCell>
        <mxCell id="Z_NCsX3aNf2hh9q1rLj8-80" value="Main menu" style="strokeWidth=2;html=1;shape=mxgraph.flowchart.display;whiteSpace=wrap;direction=west;" parent="WIyWlLk6GJQsqaUBKTNV-1" vertex="1">
          <mxGeometry x="-500" y="130" width="100" height="60" as="geometry" />
        </mxCell>
        <mxCell id="eJ4s3iMvu9IRw2cU6n5I-0" style="edgeStyle=orthogonalEdgeStyle;rounded=0;orthogonalLoop=1;jettySize=auto;html=1;" parent="WIyWlLk6GJQsqaUBKTNV-1" source="Z_NCsX3aNf2hh9q1rLj8-81" target="eJ4s3iMvu9IRw2cU6n5I-1" edge="1">
          <mxGeometry relative="1" as="geometry">
            <mxPoint x="-570" y="100" as="targetPoint" />
            <Array as="points">
              <mxPoint x="-540" y="100" />
              <mxPoint x="-570" y="101" />
            </Array>
          </mxGeometry>
        </mxCell>
        <mxCell id="Z_NCsX3aNf2hh9q1rLj8-81" value="Main menu" style="strokeWidth=2;html=1;shape=mxgraph.flowchart.display;whiteSpace=wrap;direction=west;" parent="WIyWlLk6GJQsqaUBKTNV-1" vertex="1">
          <mxGeometry x="-500" y="70" width="100" height="60" as="geometry" />
        </mxCell>
        <mxCell id="Z_NCsX3aNf2hh9q1rLj8-82" value="" style="group" parent="WIyWlLk6GJQsqaUBKTNV-1" vertex="1" connectable="0">
          <mxGeometry x="-215" y="-450" width="350" height="410" as="geometry" />
        </mxCell>
        <mxCell id="Z_NCsX3aNf2hh9q1rLj8-37" value="Dashboard (App)" style="rounded=0;whiteSpace=wrap;html=1;fillColor=#d5e8d4;gradientColor=#97d077;strokeColor=#82b366;" parent="Z_NCsX3aNf2hh9q1rLj8-82" vertex="1">
          <mxGeometry x="220" width="120" height="30" as="geometry" />
        </mxCell>
        <mxCell id="Z_NCsX3aNf2hh9q1rLj8-65" style="rounded=0;orthogonalLoop=1;jettySize=auto;html=1;exitX=0.25;exitY=1;exitDx=0;exitDy=0;entryX=1;entryY=0;entryDx=0;entryDy=0;startArrow=classic;startFill=1;" parent="Z_NCsX3aNf2hh9q1rLj8-82" source="Z_NCsX3aNf2hh9q1rLj8-38" target="Z_NCsX3aNf2hh9q1rLj8-40" edge="1">
          <mxGeometry relative="1" as="geometry" />
        </mxCell>
        <mxCell id="Z_NCsX3aNf2hh9q1rLj8-67" style="edgeStyle=orthogonalEdgeStyle;rounded=0;orthogonalLoop=1;jettySize=auto;html=1;entryX=0.5;entryY=1;entryDx=0;entryDy=0;startArrow=classic;startFill=1;" parent="Z_NCsX3aNf2hh9q1rLj8-82" source="Z_NCsX3aNf2hh9q1rLj8-38" target="Z_NCsX3aNf2hh9q1rLj8-37" edge="1">
          <mxGeometry relative="1" as="geometry" />
        </mxCell>
        <mxCell id="Z_NCsX3aNf2hh9q1rLj8-68" value="API" style="edgeLabel;html=1;align=center;verticalAlign=middle;resizable=0;points=[];" parent="Z_NCsX3aNf2hh9q1rLj8-67" vertex="1" connectable="0">
          <mxGeometry x="0.0402" y="1" relative="1" as="geometry">
            <mxPoint as="offset" />
          </mxGeometry>
        </mxCell>
        <mxCell id="Z_NCsX3aNf2hh9q1rLj8-38" value="Backend" style="whiteSpace=wrap;html=1;fillColor=#f8cecc;gradientColor=#ea6b66;strokeColor=#b85450;" parent="Z_NCsX3aNf2hh9q1rLj8-82" vertex="1">
          <mxGeometry x="220" y="110" width="120" height="30" as="geometry" />
        </mxCell>
        <mxCell id="Z_NCsX3aNf2hh9q1rLj8-39" value="DB" style="strokeWidth=2;html=1;shape=mxgraph.flowchart.database;whiteSpace=wrap;fillColor=#e6d0de;gradientColor=#d5739d;strokeColor=#996185;" parent="Z_NCsX3aNf2hh9q1rLj8-82" vertex="1">
          <mxGeometry x="290" y="185" width="60" height="60" as="geometry" />
        </mxCell>
        <mxCell id="Z_NCsX3aNf2hh9q1rLj8-42" style="rounded=0;orthogonalLoop=1;jettySize=auto;html=1;entryX=0.5;entryY=0;entryDx=0;entryDy=0;" parent="Z_NCsX3aNf2hh9q1rLj8-82" source="Z_NCsX3aNf2hh9q1rLj8-40" target="Z_NCsX3aNf2hh9q1rLj8-41" edge="1">
          <mxGeometry relative="1" as="geometry" />
        </mxCell>
        <mxCell id="Z_NCsX3aNf2hh9q1rLj8-46" style="rounded=0;orthogonalLoop=1;jettySize=auto;html=1;" parent="Z_NCsX3aNf2hh9q1rLj8-82" source="Z_NCsX3aNf2hh9q1rLj8-40" target="Z_NCsX3aNf2hh9q1rLj8-44" edge="1">
          <mxGeometry relative="1" as="geometry" />
        </mxCell>
        <mxCell id="Z_NCsX3aNf2hh9q1rLj8-54" style="rounded=0;orthogonalLoop=1;jettySize=auto;html=1;entryX=0;entryY=0;entryDx=0;entryDy=0;" parent="Z_NCsX3aNf2hh9q1rLj8-82" source="Z_NCsX3aNf2hh9q1rLj8-40" target="Z_NCsX3aNf2hh9q1rLj8-53" edge="1">
          <mxGeometry relative="1" as="geometry" />
        </mxCell>
        <mxCell id="Z_NCsX3aNf2hh9q1rLj8-40" value="Arduino" style="ellipse;whiteSpace=wrap;html=1;aspect=fixed;fillColor=#dae8fc;gradientColor=#7ea6e0;strokeColor=#6c8ebf;" parent="Z_NCsX3aNf2hh9q1rLj8-82" vertex="1">
          <mxGeometry x="140" y="180" width="80" height="80" as="geometry" />
        </mxCell>
        <mxCell id="Z_NCsX3aNf2hh9q1rLj8-41" value="LED" style="rhombus;whiteSpace=wrap;html=1;fillColor=#f5f5f5;gradientColor=#b3b3b3;strokeColor=#666666;" parent="Z_NCsX3aNf2hh9q1rLj8-82" vertex="1">
          <mxGeometry x="140" y="330" width="80" height="80" as="geometry" />
        </mxCell>
        <mxCell id="Z_NCsX3aNf2hh9q1rLj8-44" value="Display" style="rhombus;whiteSpace=wrap;html=1;fillColor=#f5f5f5;gradientColor=#b3b3b3;strokeColor=#666666;" parent="Z_NCsX3aNf2hh9q1rLj8-82" vertex="1">
          <mxGeometry x="240" y="250" width="80" height="80" as="geometry" />
        </mxCell>
        <mxCell id="Z_NCsX3aNf2hh9q1rLj8-61" style="rounded=0;orthogonalLoop=1;jettySize=auto;html=1;entryX=0.002;entryY=0.59;entryDx=0;entryDy=0;entryPerimeter=0;" parent="Z_NCsX3aNf2hh9q1rLj8-82" source="Z_NCsX3aNf2hh9q1rLj8-48" target="Z_NCsX3aNf2hh9q1rLj8-40" edge="1">
          <mxGeometry relative="1" as="geometry" />
        </mxCell>
        <mxCell id="Z_NCsX3aNf2hh9q1rLj8-48" value="Knap2" style="shape=hexagon;perimeter=hexagonPerimeter2;whiteSpace=wrap;html=1;fixedSize=1;fillColor=#ffcd28;gradientColor=#ffa500;strokeColor=#d79b00;" parent="Z_NCsX3aNf2hh9q1rLj8-82" vertex="1">
          <mxGeometry y="230" width="70" height="30" as="geometry" />
        </mxCell>
        <mxCell id="Z_NCsX3aNf2hh9q1rLj8-62" style="rounded=0;orthogonalLoop=1;jettySize=auto;html=1;" parent="Z_NCsX3aNf2hh9q1rLj8-82" source="Z_NCsX3aNf2hh9q1rLj8-49" edge="1">
          <mxGeometry relative="1" as="geometry">
            <mxPoint x="140" y="210" as="targetPoint" />
          </mxGeometry>
        </mxCell>
        <mxCell id="Z_NCsX3aNf2hh9q1rLj8-49" value="Knap1" style="shape=hexagon;perimeter=hexagonPerimeter2;whiteSpace=wrap;html=1;fixedSize=1;fillColor=#ffcd28;gradientColor=#ffa500;strokeColor=#d79b00;" parent="Z_NCsX3aNf2hh9q1rLj8-82" vertex="1">
          <mxGeometry y="200" width="70" height="30" as="geometry" />
        </mxCell>
        <mxCell id="Z_NCsX3aNf2hh9q1rLj8-50" value="Knap0" style="shape=hexagon;perimeter=hexagonPerimeter2;whiteSpace=wrap;html=1;fixedSize=1;fillColor=#ffcd28;gradientColor=#ffa500;strokeColor=#d79b00;" parent="Z_NCsX3aNf2hh9q1rLj8-82" vertex="1">
          <mxGeometry x="30" y="170" width="70" height="30" as="geometry" />
        </mxCell>
        <mxCell id="Z_NCsX3aNf2hh9q1rLj8-60" style="rounded=0;orthogonalLoop=1;jettySize=auto;html=1;" parent="Z_NCsX3aNf2hh9q1rLj8-82" source="Z_NCsX3aNf2hh9q1rLj8-51" target="Z_NCsX3aNf2hh9q1rLj8-40" edge="1">
          <mxGeometry relative="1" as="geometry" />
        </mxCell>
        <mxCell id="Z_NCsX3aNf2hh9q1rLj8-51" value="Knap3" style="shape=hexagon;perimeter=hexagonPerimeter2;whiteSpace=wrap;html=1;fixedSize=1;fillColor=#ffcd28;gradientColor=#ffa500;strokeColor=#d79b00;" parent="Z_NCsX3aNf2hh9q1rLj8-82" vertex="1">
          <mxGeometry x="30" y="260" width="70" height="30" as="geometry" />
        </mxCell>
        <mxCell id="Z_NCsX3aNf2hh9q1rLj8-52" value="Knap4" style="shape=hexagon;perimeter=hexagonPerimeter2;whiteSpace=wrap;html=1;fixedSize=1;fillColor=#ffcd28;gradientColor=#ffa500;strokeColor=#d79b00;" parent="Z_NCsX3aNf2hh9q1rLj8-82" vertex="1">
          <mxGeometry x="60" y="290" width="70" height="30" as="geometry" />
        </mxCell>
        <mxCell id="Z_NCsX3aNf2hh9q1rLj8-53" value="Buzzer" style="rhombus;whiteSpace=wrap;html=1;fillColor=#f5f5f5;gradientColor=#b3b3b3;strokeColor=#666666;" parent="Z_NCsX3aNf2hh9q1rLj8-82" vertex="1">
          <mxGeometry x="210" y="310" width="80" height="80" as="geometry" />
        </mxCell>
        <mxCell id="Z_NCsX3aNf2hh9q1rLj8-58" style="edgeStyle=orthogonalEdgeStyle;rounded=0;orthogonalLoop=1;jettySize=auto;html=1;" parent="Z_NCsX3aNf2hh9q1rLj8-82" source="Z_NCsX3aNf2hh9q1rLj8-55" target="Z_NCsX3aNf2hh9q1rLj8-40" edge="1">
          <mxGeometry relative="1" as="geometry" />
        </mxCell>
        <mxCell id="Z_NCsX3aNf2hh9q1rLj8-55" value="Gyroscope" style="shape=hexagon;perimeter=hexagonPerimeter2;whiteSpace=wrap;html=1;fixedSize=1;fillColor=#ffcd28;gradientColor=#ffa500;strokeColor=#d79b00;" parent="Z_NCsX3aNf2hh9q1rLj8-82" vertex="1">
          <mxGeometry x="60" y="140" width="70" height="30" as="geometry" />
        </mxCell>
        <mxCell id="Z_NCsX3aNf2hh9q1rLj8-59" style="rounded=0;orthogonalLoop=1;jettySize=auto;html=1;entryX=0;entryY=0;entryDx=0;entryDy=0;" parent="Z_NCsX3aNf2hh9q1rLj8-82" source="Z_NCsX3aNf2hh9q1rLj8-50" target="Z_NCsX3aNf2hh9q1rLj8-40" edge="1">
          <mxGeometry relative="1" as="geometry" />
        </mxCell>
        <mxCell id="Z_NCsX3aNf2hh9q1rLj8-69" value="I2C" style="edgeLabel;html=1;align=center;verticalAlign=middle;resizable=0;points=[];" parent="Z_NCsX3aNf2hh9q1rLj8-59" vertex="1" connectable="0">
          <mxGeometry x="-0.1869" y="-2" relative="1" as="geometry">
            <mxPoint as="offset" />
          </mxGeometry>
        </mxCell>
        <mxCell id="Z_NCsX3aNf2hh9q1rLj8-63" style="rounded=0;orthogonalLoop=1;jettySize=auto;html=1;entryX=0;entryY=1;entryDx=0;entryDy=0;" parent="Z_NCsX3aNf2hh9q1rLj8-82" source="Z_NCsX3aNf2hh9q1rLj8-52" target="Z_NCsX3aNf2hh9q1rLj8-40" edge="1">
          <mxGeometry relative="1" as="geometry">
            <mxPoint x="160" y="250" as="targetPoint" />
          </mxGeometry>
        </mxCell>
        <mxCell id="Z_NCsX3aNf2hh9q1rLj8-66" style="rounded=0;orthogonalLoop=1;jettySize=auto;html=1;entryX=0.5;entryY=0;entryDx=0;entryDy=0;entryPerimeter=0;startArrow=classic;startFill=1;" parent="Z_NCsX3aNf2hh9q1rLj8-82" source="Z_NCsX3aNf2hh9q1rLj8-38" target="Z_NCsX3aNf2hh9q1rLj8-39" edge="1">
          <mxGeometry relative="1" as="geometry" />
        </mxCell>
        <mxCell id="Z_NCsX3aNf2hh9q1rLj8-77" value="SQL Connection" style="edgeLabel;html=1;align=center;verticalAlign=middle;resizable=0;points=[];" parent="Z_NCsX3aNf2hh9q1rLj8-66" vertex="1" connectable="0">
          <mxGeometry x="-0.0741" y="-2" relative="1" as="geometry">
            <mxPoint as="offset" />
          </mxGeometry>
        </mxCell>
        <mxCell id="Z_NCsX3aNf2hh9q1rLj8-70" value="I2C" style="edgeLabel;html=1;align=center;verticalAlign=middle;resizable=0;points=[];" parent="Z_NCsX3aNf2hh9q1rLj8-82" vertex="1" connectable="0">
          <mxGeometry x="128.9270173870916" y="201.18238479637148" as="geometry">
            <mxPoint x="-24" y="8" as="offset" />
          </mxGeometry>
        </mxCell>
        <mxCell id="Z_NCsX3aNf2hh9q1rLj8-72" value="I2C" style="edgeLabel;html=1;align=center;verticalAlign=middle;resizable=0;points=[];" parent="Z_NCsX3aNf2hh9q1rLj8-82" vertex="1" connectable="0">
          <mxGeometry x="146.9970173870916" y="155.00238479637142" as="geometry" />
        </mxCell>
        <mxCell id="Z_NCsX3aNf2hh9q1rLj8-73" value="I2C" style="edgeLabel;html=1;align=center;verticalAlign=middle;resizable=0;points=[];" parent="Z_NCsX3aNf2hh9q1rLj8-82" vertex="1" connectable="0">
          <mxGeometry x="99.9970173870916" y="230.00238479637153" as="geometry" />
        </mxCell>
        <mxCell id="Z_NCsX3aNf2hh9q1rLj8-75" value="I2C" style="edgeLabel;html=1;align=center;verticalAlign=middle;resizable=0;points=[];" parent="Z_NCsX3aNf2hh9q1rLj8-82" vertex="1" connectable="0">
          <mxGeometry x="109.9970173870916" y="250.00238479637153" as="geometry" />
        </mxCell>
        <mxCell id="Z_NCsX3aNf2hh9q1rLj8-76" value="I2C" style="edgeLabel;html=1;align=center;verticalAlign=middle;resizable=0;points=[];" parent="Z_NCsX3aNf2hh9q1rLj8-82" vertex="1" connectable="0">
          <mxGeometry x="128.9270173870916" y="275.00238479637153" as="geometry" />
        </mxCell>
        <mxCell id="eJ4s3iMvu9IRw2cU6n5I-2" style="edgeStyle=orthogonalEdgeStyle;rounded=0;orthogonalLoop=1;jettySize=auto;html=1;entryX=0.5;entryY=0;entryDx=0;entryDy=0;exitX=0;exitY=0.5;exitDx=0;exitDy=0;exitPerimeter=0;" parent="WIyWlLk6GJQsqaUBKTNV-1" source="eJ4s3iMvu9IRw2cU6n5I-1" target="eJ4s3iMvu9IRw2cU6n5I-25" edge="1">
          <mxGeometry relative="1" as="geometry">
            <mxPoint x="-570" y="-30" as="targetPoint" />
            <mxPoint x="-600" y="90" as="sourcePoint" />
            <Array as="points">
              <mxPoint x="-630" y="100" />
              <mxPoint x="-630" y="-90" />
              <mxPoint x="-560" y="-90" />
            </Array>
          </mxGeometry>
        </mxCell>
        <mxCell id="eJ4s3iMvu9IRw2cU6n5I-7" value="Play" style="edgeLabel;html=1;align=center;verticalAlign=middle;resizable=0;points=[];" parent="eJ4s3iMvu9IRw2cU6n5I-2" vertex="1" connectable="0">
          <mxGeometry x="-0.0518" y="1" relative="1" as="geometry">
            <mxPoint as="offset" />
          </mxGeometry>
        </mxCell>
        <mxCell id="eJ4s3iMvu9IRw2cU6n5I-3" style="edgeStyle=orthogonalEdgeStyle;rounded=0;orthogonalLoop=1;jettySize=auto;html=1;exitX=0.5;exitY=1;exitDx=0;exitDy=0;exitPerimeter=0;entryX=0.5;entryY=1;entryDx=0;entryDy=0;entryPerimeter=0;" parent="WIyWlLk6GJQsqaUBKTNV-1" source="eJ4s3iMvu9IRw2cU6n5I-1" target="Z_NCsX3aNf2hh9q1rLj8-6" edge="1">
          <mxGeometry relative="1" as="geometry">
            <mxPoint x="-690.0000000000001" y="99.66666666666674" as="targetPoint" />
            <Array as="points">
              <mxPoint x="-560" y="340" />
              <mxPoint x="-60" y="340" />
            </Array>
          </mxGeometry>
        </mxCell>
        <mxCell id="eJ4s3iMvu9IRw2cU6n5I-8" value="Quit" style="edgeLabel;html=1;align=center;verticalAlign=middle;resizable=0;points=[];" parent="eJ4s3iMvu9IRw2cU6n5I-3" vertex="1" connectable="0">
          <mxGeometry x="0.0352" y="1" relative="1" as="geometry">
            <mxPoint x="7" y="1" as="offset" />
          </mxGeometry>
        </mxCell>
        <mxCell id="eJ4s3iMvu9IRw2cU6n5I-1" value="Tryk knap" style="strokeWidth=2;html=1;shape=mxgraph.flowchart.decision;whiteSpace=wrap;" parent="WIyWlLk6GJQsqaUBKTNV-1" vertex="1">
          <mxGeometry x="-590" y="70" width="60" height="60" as="geometry" />
        </mxCell>
        <mxCell id="eJ4s3iMvu9IRw2cU6n5I-23" style="edgeStyle=orthogonalEdgeStyle;rounded=0;orthogonalLoop=1;jettySize=auto;html=1;exitX=0.5;exitY=1;exitDx=0;exitDy=0;exitPerimeter=0;" parent="WIyWlLk6GJQsqaUBKTNV-1" source="eJ4s3iMvu9IRw2cU6n5I-10" edge="1">
          <mxGeometry relative="1" as="geometry">
            <mxPoint x="-60" y="310" as="targetPoint" />
            <Array as="points">
              <mxPoint x="-620" y="370" />
              <mxPoint x="-60" y="370" />
            </Array>
          </mxGeometry>
        </mxCell>
        <mxCell id="eJ4s3iMvu9IRw2cU6n5I-24" value="Quit" style="edgeLabel;html=1;align=center;verticalAlign=middle;resizable=0;points=[];" parent="eJ4s3iMvu9IRw2cU6n5I-23" vertex="1" connectable="0">
          <mxGeometry x="0.0367" y="-4" relative="1" as="geometry">
            <mxPoint x="6" y="-4" as="offset" />
          </mxGeometry>
        </mxCell>
        <mxCell id="eJ4s3iMvu9IRw2cU6n5I-34" style="edgeStyle=orthogonalEdgeStyle;rounded=0;orthogonalLoop=1;jettySize=auto;html=1;entryX=0.5;entryY=1;entryDx=0;entryDy=0;" parent="WIyWlLk6GJQsqaUBKTNV-1" source="eJ4s3iMvu9IRw2cU6n5I-10" target="eJ4s3iMvu9IRw2cU6n5I-32" edge="1">
          <mxGeometry relative="1" as="geometry">
            <Array as="points">
              <mxPoint x="-695" y="160" />
            </Array>
          </mxGeometry>
        </mxCell>
        <mxCell id="kTFjEs-Sb9RA6y6n_P-J-0" value="Play" style="edgeLabel;html=1;align=center;verticalAlign=middle;resizable=0;points=[];" vertex="1" connectable="0" parent="eJ4s3iMvu9IRw2cU6n5I-34">
          <mxGeometry x="0.172" relative="1" as="geometry">
            <mxPoint as="offset" />
          </mxGeometry>
        </mxCell>
        <mxCell id="eJ4s3iMvu9IRw2cU6n5I-10" value="Tryk knap" style="strokeWidth=2;html=1;shape=mxgraph.flowchart.decision;whiteSpace=wrap;" parent="WIyWlLk6GJQsqaUBKTNV-1" vertex="1">
          <mxGeometry x="-650" y="130" width="60" height="60" as="geometry" />
        </mxCell>
        <mxCell id="kTFjEs-Sb9RA6y6n_P-J-1" style="edgeStyle=orthogonalEdgeStyle;rounded=0;orthogonalLoop=1;jettySize=auto;html=1;entryX=0.5;entryY=1;entryDx=0;entryDy=0;" edge="1" parent="WIyWlLk6GJQsqaUBKTNV-1" source="eJ4s3iMvu9IRw2cU6n5I-11" target="kTFjEs-Sb9RA6y6n_P-J-2">
          <mxGeometry relative="1" as="geometry">
            <mxPoint x="-760" y="140" as="targetPoint" />
            <Array as="points">
              <mxPoint x="-810" y="220" />
            </Array>
          </mxGeometry>
        </mxCell>
        <mxCell id="kTFjEs-Sb9RA6y6n_P-J-3" value="Play" style="edgeLabel;html=1;align=center;verticalAlign=middle;resizable=0;points=[];" vertex="1" connectable="0" parent="kTFjEs-Sb9RA6y6n_P-J-1">
          <mxGeometry x="0.4086" y="3" relative="1" as="geometry">
            <mxPoint y="-1" as="offset" />
          </mxGeometry>
        </mxCell>
        <mxCell id="eJ4s3iMvu9IRw2cU6n5I-11" value="Tryk knap" style="strokeWidth=2;html=1;shape=mxgraph.flowchart.decision;whiteSpace=wrap;" parent="WIyWlLk6GJQsqaUBKTNV-1" vertex="1">
          <mxGeometry x="-710" y="190" width="60" height="60" as="geometry" />
        </mxCell>
        <mxCell id="kTFjEs-Sb9RA6y6n_P-J-4" style="edgeStyle=orthogonalEdgeStyle;rounded=0;orthogonalLoop=1;jettySize=auto;html=1;entryX=0.5;entryY=1;entryDx=0;entryDy=0;" edge="1" parent="WIyWlLk6GJQsqaUBKTNV-1" source="eJ4s3iMvu9IRw2cU6n5I-12" target="kTFjEs-Sb9RA6y6n_P-J-5">
          <mxGeometry relative="1" as="geometry">
            <mxPoint x="-920" y="200" as="targetPoint" />
          </mxGeometry>
        </mxCell>
        <mxCell id="kTFjEs-Sb9RA6y6n_P-J-6" value="Play" style="edgeLabel;html=1;align=center;verticalAlign=middle;resizable=0;points=[];" vertex="1" connectable="0" parent="kTFjEs-Sb9RA6y6n_P-J-4">
          <mxGeometry x="0.6092" y="2" relative="1" as="geometry">
            <mxPoint as="offset" />
          </mxGeometry>
        </mxCell>
        <mxCell id="eJ4s3iMvu9IRw2cU6n5I-12" value="Tryk knap" style="strokeWidth=2;html=1;shape=mxgraph.flowchart.decision;whiteSpace=wrap;" parent="WIyWlLk6GJQsqaUBKTNV-1" vertex="1">
          <mxGeometry x="-770" y="250" width="60" height="60" as="geometry" />
        </mxCell>
        <mxCell id="eJ4s3iMvu9IRw2cU6n5I-13" style="edgeStyle=orthogonalEdgeStyle;rounded=0;orthogonalLoop=1;jettySize=auto;html=1;entryX=1;entryY=0.5;entryDx=0;entryDy=0;entryPerimeter=0;" parent="WIyWlLk6GJQsqaUBKTNV-1" source="Z_NCsX3aNf2hh9q1rLj8-78" target="eJ4s3iMvu9IRw2cU6n5I-12" edge="1">
          <mxGeometry relative="1" as="geometry" />
        </mxCell>
        <mxCell id="eJ4s3iMvu9IRw2cU6n5I-14" style="edgeStyle=orthogonalEdgeStyle;rounded=0;orthogonalLoop=1;jettySize=auto;html=1;entryX=1;entryY=0.5;entryDx=0;entryDy=0;entryPerimeter=0;" parent="WIyWlLk6GJQsqaUBKTNV-1" source="Z_NCsX3aNf2hh9q1rLj8-79" target="eJ4s3iMvu9IRw2cU6n5I-11" edge="1">
          <mxGeometry relative="1" as="geometry" />
        </mxCell>
        <mxCell id="eJ4s3iMvu9IRw2cU6n5I-15" style="edgeStyle=orthogonalEdgeStyle;rounded=0;orthogonalLoop=1;jettySize=auto;html=1;entryX=1;entryY=0.5;entryDx=0;entryDy=0;entryPerimeter=0;exitX=1;exitY=0.5;exitDx=0;exitDy=0;exitPerimeter=0;" parent="WIyWlLk6GJQsqaUBKTNV-1" source="Z_NCsX3aNf2hh9q1rLj8-80" target="eJ4s3iMvu9IRw2cU6n5I-10" edge="1">
          <mxGeometry relative="1" as="geometry">
            <mxPoint x="-560" y="160" as="sourcePoint" />
          </mxGeometry>
        </mxCell>
        <mxCell id="eJ4s3iMvu9IRw2cU6n5I-16" style="edgeStyle=orthogonalEdgeStyle;rounded=0;orthogonalLoop=1;jettySize=auto;html=1;exitX=0.5;exitY=1;exitDx=0;exitDy=0;exitPerimeter=0;entryX=0.5;entryY=1;entryDx=0;entryDy=0;entryPerimeter=0;" parent="WIyWlLk6GJQsqaUBKTNV-1" source="eJ4s3iMvu9IRw2cU6n5I-12" target="Z_NCsX3aNf2hh9q1rLj8-6" edge="1">
          <mxGeometry relative="1" as="geometry">
            <mxPoint x="-170" y="570" as="targetPoint" />
            <mxPoint x="-700" y="420" as="sourcePoint" />
            <Array as="points">
              <mxPoint x="-740" y="430" />
              <mxPoint x="-60" y="430" />
            </Array>
          </mxGeometry>
        </mxCell>
        <mxCell id="eJ4s3iMvu9IRw2cU6n5I-17" value="Quit" style="edgeLabel;html=1;align=center;verticalAlign=middle;resizable=0;points=[];" parent="eJ4s3iMvu9IRw2cU6n5I-16" vertex="1" connectable="0">
          <mxGeometry x="0.0352" y="1" relative="1" as="geometry">
            <mxPoint x="4" as="offset" />
          </mxGeometry>
        </mxCell>
        <mxCell id="eJ4s3iMvu9IRw2cU6n5I-20" style="edgeStyle=orthogonalEdgeStyle;rounded=0;orthogonalLoop=1;jettySize=auto;html=1;exitX=0.5;exitY=1;exitDx=0;exitDy=0;exitPerimeter=0;entryX=0.5;entryY=1;entryDx=0;entryDy=0;entryPerimeter=0;" parent="WIyWlLk6GJQsqaUBKTNV-1" source="eJ4s3iMvu9IRw2cU6n5I-11" target="Z_NCsX3aNf2hh9q1rLj8-6" edge="1">
          <mxGeometry relative="1" as="geometry">
            <mxPoint x="-680" y="270" as="sourcePoint" />
            <mxPoint x="-60" y="330" as="targetPoint" />
            <Array as="points">
              <mxPoint x="-680" y="400" />
              <mxPoint x="-60" y="400" />
            </Array>
          </mxGeometry>
        </mxCell>
        <mxCell id="eJ4s3iMvu9IRw2cU6n5I-22" value="Quit" style="edgeLabel;html=1;align=center;verticalAlign=middle;resizable=0;points=[];" parent="eJ4s3iMvu9IRw2cU6n5I-20" vertex="1" connectable="0">
          <mxGeometry x="0.0535" y="-1" relative="1" as="geometry">
            <mxPoint x="-3" as="offset" />
          </mxGeometry>
        </mxCell>
        <mxCell id="eJ4s3iMvu9IRw2cU6n5I-25" value="" style="rounded=1;whiteSpace=wrap;html=1;absoluteArcSize=1;arcSize=14;strokeWidth=2;" parent="WIyWlLk6GJQsqaUBKTNV-1" vertex="1">
          <mxGeometry x="-610" y="-60" width="100" height="100" as="geometry" />
        </mxCell>
        <mxCell id="eJ4s3iMvu9IRw2cU6n5I-26" value="GAME STARTS" style="text;html=1;align=center;verticalAlign=middle;resizable=0;points=[];autosize=1;strokeColor=none;fillColor=none;" parent="WIyWlLk6GJQsqaUBKTNV-1" vertex="1">
          <mxGeometry x="-615" y="-25" width="110" height="30" as="geometry" />
        </mxCell>
        <mxCell id="eJ4s3iMvu9IRw2cU6n5I-32" value="" style="rounded=1;whiteSpace=wrap;html=1;absoluteArcSize=1;arcSize=14;strokeWidth=2;" parent="WIyWlLk6GJQsqaUBKTNV-1" vertex="1">
          <mxGeometry x="-745" y="-40" width="100" height="100" as="geometry" />
        </mxCell>
        <mxCell id="eJ4s3iMvu9IRw2cU6n5I-33" value="GAME STARTS" style="text;html=1;align=center;verticalAlign=middle;resizable=0;points=[];autosize=1;strokeColor=none;fillColor=none;" parent="WIyWlLk6GJQsqaUBKTNV-1" vertex="1">
          <mxGeometry x="-750" y="-5" width="110" height="30" as="geometry" />
        </mxCell>
        <mxCell id="kTFjEs-Sb9RA6y6n_P-J-2" value="GAME STARTS" style="rounded=1;whiteSpace=wrap;html=1;absoluteArcSize=1;arcSize=14;strokeWidth=2;" vertex="1" parent="WIyWlLk6GJQsqaUBKTNV-1">
          <mxGeometry x="-860" y="30" width="100" height="100" as="geometry" />
        </mxCell>
        <mxCell id="kTFjEs-Sb9RA6y6n_P-J-5" value="GAME STARTS" style="rounded=1;whiteSpace=wrap;html=1;absoluteArcSize=1;arcSize=14;strokeWidth=2;" vertex="1" parent="WIyWlLk6GJQsqaUBKTNV-1">
          <mxGeometry x="-970" y="80" width="100" height="100" as="geometry" />
        </mxCell>
      </root>
    </mxGraphModel>
  </diagram>
</mxfile>
